<svg version="1" xmlns="http://www.w3.org/2000/svg" width="666.667" height="666.667" viewBox="0 0 500.000000 500.000000"><path d="M158.5 43c-26.1 3.9-48.6 23.5-55.9 48.6-3.3 11.3-3.7 20.5-3.4 81.1.3 70-1.6 61 14.8 69.6 24.5 12.7 35.6 18.6 54.5 28.5 11 5.7 24.7 13 30.5 16 5.8 3 13.9 7.3 18 9.4 8.3 4.4 11.6 4.5 15.7.6l2.3-2.1V239c0-42.9-.3-56-1.2-57.3-.7-.9-5.8-3.9-11.3-6.7-13.8-7.1-13.6-6.9-13.3-15.4l.3-7.1 41.8-.3 41.7-.2v24.8l3.1 2.6 3.1 2.6h48.1c46 0 48.3-.1 51.4-2 2.2-1.3 3.4-2.9 3.8-5.3.4-1.9.5-19.6.2-39.3-.3-29.9-.7-36.9-2.1-41.7-3.9-13.3-9.8-22.9-20.2-32.7-10.6-10-22.5-15.8-37.1-17.9-8.3-1.3-176.6-1.3-184.8-.1zm186.1 19.4c14.6 3.9 27.8 14.7 33.9 27.8 5 10.9 5.6 16.1 5.3 45.8l-.3 26.5h-26L357 141c-.5-19.3-.8-22.1-2.9-27.3-4.4-11.2-12.5-18.9-25.1-24-5.5-2.2-5.6-2.2-74.8-2.5-45.8-.2-71.1.1-75 .8-16.5 3-29.1 15.7-32.7 32.9-2 9.5-2.1 79.9-.2 84.5 1.4 3.1 1.1 3 38.7 22.3 27 13.9 28.9 15 30.8 17.2.8 1 1.2 5.6 1.2 14.8 0 11.7-.2 13.3-1.7 13.3-.9 0-9.1-4-18.2-8.9-9.1-4.8-26-13.7-37.6-19.6-11.5-5.9-21.4-11.1-22-11.5-.5-.4-4.7-2.7-9.3-5-4.5-2.3-8.7-5-9.2-6-.6-1.2-1-22.3-1-57.2 0-60.8.3-63.8 6-75.5 5.8-11.8 19.8-23.2 32.9-26.9 7-1.9 180.5-1.9 187.7 0zm-23.1 44.7c5.3 1.3 12.5 7.4 15 12.5 2 4.2 3.2 25.9 2.1 36.7l-.8 6.8-12.6-.3-12.7-.3-.6-11c-.4-6.1-.7-11.8-.8-12.8 0-.9-1.6-2.6-3.3-3.7-3.2-1.9-5.2-2-57.1-2h-53.9l-2.9 2.9-2.9 2.9v19.4c.1 15.5.4 19.7 1.5 21.3.9 1 6.6 4.6 12.8 8l11.2 6 .3 13.8c.3 13.7.3 13.7-2 13.7-1.3 0-13.1-5.6-26.3-12.4l-24-12.4-.3-36.1-.2-36.1 2.4-4.9c2.7-5.2 7.2-9.6 12.1-11.7 4-1.8 136.2-2 143-.3z"/><path d="M269.9 203.9l-2.9 2.9v54.9c0 47.2.2 55.2 1.5 57 .8 1.2 6.1 4.5 11.8 7.3 5.6 2.9 10.8 5.7 11.5 6.3.9.7 1.2 3.3 1 8.6l-.3 7.6h-83l-.5-12.8c-.5-12.2-.6-12.9-3-14.7-2.4-1.9-4.8-2-51.3-2-53.8 0-52.4-.2-54.6 6.2-1.4 4.1-1.5 61.1 0 71.5 1.9 14.2 5.8 24.1 13.4 34.1 11 14.6 27.2 24.3 45.5 27.2 8.9 1.4 175.2 1.4 184-.1 15.3-2.4 26.9-8.1 37.9-18.5 12.2-11.5 19-24.8 21.2-41.2.6-4.7.9-31.4.7-68.9l-.3-61.3-2.5-2.3c-2.3-2.2-8.5-5.6-42-23-6.3-3.2-15.5-8.1-20.5-10.7-46.9-24.9-59.2-31-61.9-31-1.7 0-3.9 1.1-5.7 2.9zm26.4 28c10.8 5.8 22.4 11.9 41.2 21.6 27.7 14.3 42.9 22.6 44.8 24.2 1.6 1.5 1.7 5.6 1.7 59.2 0 62.8 0 62-5.9 74.7-6 12.8-20.9 24.2-35.9 27.3-7.3 1.5-173.5 1.5-181.7 0-12.2-2.2-24-9.5-31.5-19.5-9.4-12.4-11-20.3-11-53.4 0-13.7.3-25.5.6-26.4.5-1.3 2.7-1.6 13.5-1.6H145v18.6c0 25.5 2.1 33.3 11.8 43.6 5.6 6 10.7 9.1 18.7 11.2 5.3 1.5 14 1.6 78.5 1.4l72.5-.3 6.7-3.2c12.2-5.7 20.2-16.2 22.8-29.8.7-4.1 1-18.5.8-45.2-.3-37.7-.4-39.3-2.3-41.2-1.1-1.1-9.2-5.7-18-10.2-48.5-24.8-50.2-25.8-50.9-28.4-.8-2.8-.7-23 0-24.9.9-2.4 2.8-2 10.7 2.3zm16 59.5c16.2 8.3 24.6 13.2 25.5 14.8 1 1.8 1.2 10 1 36.8-.4 33-.5 34.7-2.5 38.6-2.8 5.3-9.2 11-14 12.4-2.7.8-24.3 1-72.9.8l-69.1-.3-4.8-3c-2.7-1.7-6.3-5-8-7.4l-3-4.3-.3-20c-.2-13.4 0-20.4.8-21.2 1-1 23.9-1 25 .1.3.2.6 5.8.8 12.3.3 11.1.5 11.9 2.9 14.2l2.5 2.3 52.1.3c28.7.2 53.7 0 55.5-.3 1.7-.3 4.1-1.6 5.2-2.7 1.9-2 2-3.6 2-22.3 0-23.5.9-21.6-12.9-28.5-12.9-6.4-13.1-6.7-13.1-20.4 0-11.5.4-14.6 2.1-14.6.6 0 11.9 5.6 25.2 12.4z"/></svg>